<?xml version="1.0" encoding="UTF-8" standalone="no"?>
<!-- Created with Inkscape (http://www.inkscape.org/) -->

<svg
   version="1.1"
   id="svg198"
   width="460.20148"
   height="698.5"
   viewBox="0 0 460.20148 698.5"
   sodipodi:docname="Deer16a.svg"
   inkscape:version="1.2.2 (732a01da63, 2022-12-09, custom)"
   xmlns:inkscape="http://www.inkscape.org/namespaces/inkscape"
   xmlns:sodipodi="http://sodipodi.sourceforge.net/DTD/sodipodi-0.dtd"
   xmlns="http://www.w3.org/2000/svg"
   xmlns:svg="http://www.w3.org/2000/svg">
  <defs
     id="defs202" />
  <sodipodi:namedview
     id="namedview200"
     pagecolor="#ffffff"
     bordercolor="#000000"
     borderopacity="0.25"
     inkscape:showpageshadow="2"
     inkscape:pageopacity="0.0"
     inkscape:pagecheckerboard="0"
     inkscape:deskcolor="#d1d1d1"
     showgrid="false"
     inkscape:zoom="0.99025579"
     inkscape:cx="211.05658"
     inkscape:cy="388.28352"
     inkscape:window-width="1846"
     inkscape:window-height="1016"
     inkscape:window-x="0"
     inkscape:window-y="0"
     inkscape:window-maximized="1"
     inkscape:current-layer="layer2" />
  <g
     inkscape:groupmode="layer"
     id="layer2"
     inkscape:label="Layer 1">
    <path
       style="display:inline;fill:#000000"
       d="m 238.54436,716.87427 c 1.95184,-5.5321 1.96003,-5.52431 -2.07916,-1.97786 -4.21302,3.69909 -5.03993,3.82005 -5.83491,0.85359 -1.83592,-6.85071 0.8453,-15.01424 8.80055,-26.79509 5.20675,-7.71063 5.5681,-8.7224 5.60405,-15.69134 0.0192,-3.71996 0.68533,-10.36357 1.48032,-14.76357 1.72205,-9.53092 1.86559,-20.70396 0.42397,-33 -1.29373,-11.03458 -2.00596,-13.46532 -7.51236,-25.63856 -8.19381,-18.11439 -8.75281,-21.78823 -5.83703,-38.36144 0.93945,-5.33979 1.32695,-10.96101 0.95283,-13.82188 -0.56179,-4.29588 -5.97973,-20.92189 -8.5307,-26.17812 -0.53386,-1.1 -1.48357,-3.35 -2.11048,-5 -0.62691,-1.65 -1.28991,-2.55 -1.47334,-2 -0.95915,2.87601 -11.80886,40.50835 -12.5414,43.5 -0.47136,1.925 -1.32479,8.6681 -1.8965,14.98466 -1.32424,14.63076 -1.98704,17.16387 -10.07776,38.51534 -3.7146,9.80285 -7.23419,35.50139 -7.32718,53.5 -0.0469,9.075 -0.44932,17.0625 -0.89428,17.75 -1.12847,1.74359 -5.63261,1.56568 -6.32935,-0.25 -1.0442,-2.72114 -3.12734,-1.56243 -3.81896,2.12422 -0.37395,1.99332 -0.13763,6.6586 0.52515,10.36729 1.12562,6.29862 1.05844,7.03193 -1.01926,11.12577 -2.88931,5.69303 -7.26095,8.41106 -15.70629,9.76525 C 156.51962,716.97652 143,717.89347 143,717.26221 c 0,-0.18292 0.72675,-1.44174 1.61501,-2.79739 1.93674,-2.95584 0.43751,-3.28533 -2.11501,-0.46482 -3.15379,3.4849 -4.82651,2.58912 -4.27654,-2.29017 0.70134,-6.22227 3.02649,-10.45109 10.91556,-19.8524 C 158.193,681.0679 159.70036,677.6544 165.85637,654 c 5.57192,-21.41006 6.12106,-28.45946 5.06335,-65 -0.45496,-15.71728 0.29425,-19.56594 5.93735,-30.5 3.93655,-7.62746 4.16144,-24.58987 0.69799,-52.64577 -1.44988,-11.74483 -2.86186,-22.10593 -3.13774,-23.02468 -0.27588,-0.91875 -5.88381,-6.48506 -12.46207,-12.36958 C 148.41414,458.3469 145.39932,454.59944 137.85254,440.5 l -5.35254,-10 0.0858,-14 c 0.0575,-9.39097 0.61091,-15.9753 1.68082,-20 0.87726,-3.3 2.12802,-8.25 2.77947,-11 1.07139,-4.5227 5.89576,-21.2442 7.93411,-27.5 3.02971,-9.2983 3.93057,-15.13548 4.47562,-29 0.84106,-21.39404 3.17766,-39.42688 6.54352,-50.5 2.99943,-9.86764 7.47248,-23.14517 8.08533,-24 0.39431,-0.55 2.16488,-4.825 3.93461,-9.5 4.12385,-10.89373 20.28037,-43.79739 25.03422,-50.98359 2.00709,-3.03403 4.2163,-7.25017 4.90936,-9.36921 1.84606,-5.64436 0.48809,-6.50588 -12.0204,-7.6259 -12.50856,-1.12003 -16.5488,-1.85761 -20.18197,-3.68438 -1.50674,-0.75759 -2.96452,-1.38064 -3.2395,-1.38454 -3.69703,-0.0525 -11.43904,-7.76421 -13.81264,-13.75866 -2.2706,-5.73433 -5.6804,-18.86927 -5.69653,-21.94372 -0.0102,-1.9382 0.5115,-2.25 3.76442,-2.25 11.48197,0 20.43846,2.11374 34.44067,8.12803 16.8414,7.23379 23.8177,8.27501 36.08597,5.38588 10.29295,-2.42395 10.33054,-2.45641 8.79196,-7.59174 C 224.41944,134.33023 220.2124,125.47191 216.87073,120.5 213.59407,115.62479 200.49946,102.69099 193,96.922405 184.23787,90.182577 171.04342,76.072993 168.33862,70.550578 166.97809,67.77276 165.59706,63.037749 165.26968,60.028332 l -0.59524,-5.471668 2.56863,1.683034 c 4.65672,3.051199 17.22418,10.347702 18.9749,11.016585 0.94489,0.361003 2.00708,0.188595 2.36042,-0.383128 0.35335,-0.571723 0.0965,-6.107882 -0.57079,-12.302574 -1.28647,-11.942965 -0.47273,-19.772564 2.6965,-25.944899 2.33816,-4.553769 3.81673,-1.737938 6.7602,12.874318 5.77609,28.674245 12.55108,42.286652 21.92126,44.044509 6.76059,1.268294 6.74978,-0.832348 -0.0402,-7.805112 -8.12494,-8.343709 -12.34734,-16.94915 -12.33983,-25.149119 0.003,-3.349653 0.49405,-7.849605 1.09107,-9.999893 l 1.0855,-3.909614 2.9248,5.348419 c 1.60865,2.941631 3.59266,6.086391 4.40893,6.988355 0.81627,0.901965 1.48412,2.15117 1.48412,2.776012 0,0.624841 0.95723,1.648369 2.12717,2.274504 3.06038,1.637864 4.62447,-0.833387 7.7225,-12.201526 2.27326,-8.34165 5.04552,-13.738156 9.43514,-18.366535 l 2.84524,-3 -0.46896,13 c -0.25793,7.15 -0.94837,16.559108 -1.53431,20.909129 -1.03574,7.689289 -0.37121,14.746444 1.57152,16.689169 0.47544,0.475444 3.06914,-1.343927 5.82914,-4.088906 2.73491,-2.720018 5.31006,-4.959867 5.72256,-4.97744 1.22165,-0.05205 0.85358,13.646616 -0.44314,16.492608 -0.97311,2.135736 -0.92701,2.785308 0.25,3.522268 2.1675,1.357148 14.86252,-0.05093 19.63828,-2.17819 C 273.00246,80.840887 275.72496,80 276.74514,80 c 1.02017,0 2.28236,-0.399422 2.80486,-0.887605 0.5225,-0.488183 2.00692,-1.207607 3.29872,-1.598721 2.10481,-0.637266 2.27696,-0.467202 1.65773,1.637606 C 282.59647,85.643462 274.50338,97 271.7868,97 c -0.44402,0 -3.04808,1.575 -5.7868,3.5 -2.73872,1.925 -5.35566,3.5 -5.81543,3.5 -1.00142,0 -4.19653,3.62682 -5.93457,6.73643 -1.90999,3.41725 -1.521,11.02003 0.95267,18.61966 1.96889,6.04883 2.97715,7.51061 8.5632,12.41489 4.22108,3.70591 7.17283,7.33711 8.85546,10.8939 1.38815,2.93432 2.92477,5.33512 3.4147,5.33512 0.48994,0 3.82472,2.74454 7.41062,6.09898 6.83017,6.38928 11.50295,13.47969 13.62327,20.67175 1.06062,3.59757 2.09519,4.7491 6.56375,7.30575 2.91757,1.66926 9.86351,7.22366 15.43544,12.34311 8.67161,7.96742 10.96152,9.53905 15.89866,10.9117 15.34667,4.26675 16.2771,18.99852 1.65183,26.154 -4.42594,2.16541 -7.36151,2.6759 -20.15014,3.50409 -8.23321,0.53319 -21.84989,0.9787 -30.2593,0.99002 -19.3789,0.0261 -21.94173,1.01449 -25.19808,9.71786 -4.26525,11.39989 -3.72955,51.47849 0.84548,63.25553 3.25447,8.37766 6.12588,10.13469 22.14244,13.54905 4.125,0.87936 10.65,2.46868 14.5,3.53183 11.97294,3.30624 27.31434,5.22697 42,5.25837 21.28235,0.0455 38.10982,-1.66429 96.70529,-9.82591 23.04186,-3.20945 30.82574,-3.12813 48.79471,0.50972 28.11096,5.69112 43.56911,8.73713 50,9.85244 11.10033,1.92513 14.33878,2.77546 19.34778,5.08022 9.63336,4.43252 17.25917,13.83034 21.71089,26.75587 1.97301,5.72861 4.92939,21.46572 4.93731,26.28179 l 0.004,2.44616 -3.25,-3.03864 C 575.71186,396.51313 567.27986,392 565.0109,392 c -1.56653,0 -1.25108,1.2885 2.11937,8.65678 2.62329,5.73489 3.14966,8.15077 3.25,14.91648 0.12846,8.66188 0.0587,8.81756 -9.13027,20.38345 -1.2375,1.5576 -2.25,3.18161 -2.25,3.60891 0,0.42729 -0.61732,1.48733 -1.37181,2.35564 -1.33268,1.5337 -5.23376,8.36066 -10.61633,18.57874 -1.44861,2.75 -3.9564,8.6 -5.57285,13 -3.90799,10.63756 -4.08051,22.35922 -0.44154,30 5.59407,11.74596 17.07092,22.45137 30.51589,28.46471 10.62374,4.75154 13.49946,6.46402 17.17835,10.22971 3.72148,3.80926 3.81245,4.08034 3.99058,11.89177 0.12156,5.33034 -0.33451,9.22976 -1.36885,11.70373 -0.85313,2.04054 -2.02245,4.83508 -2.5985,6.21008 -0.57604,1.375 -1.09702,2.725 -1.15773,3 -0.13025,0.59004 -5.28303,11.82698 -6.4198,14 -0.43158,0.825 -1.52132,2.85 -2.42164,4.5 -2.28922,4.19541 -7.71113,16.25276 -7.73818,17.2083 -0.0123,0.43543 -1.35224,3.4917 -2.97759,6.7917 -1.62535,3.3 -2.96527,6.34747 -2.97759,6.77216 -0.0123,0.42468 -2.10737,6.04968 -4.65566,12.5 -7.25284,18.35863 -10.34124,28.99848 -10.37065,35.72784 -0.0294,6.72454 -2.00095,13.4697 -4.3748,14.96708 -1.1207,0.70692 -2.41067,0.49784 -4.48368,-0.72672 -2.70164,-1.59589 -3.0081,-1.60082 -4.27397,-0.0687 -0.91052,1.10204 -1.28432,3.8399 -1.12491,8.2394 0.1313,3.6239 0.009,7.99493 -0.27176,9.71338 -0.56731,3.47215 -5.30678,8.98393 -8.89973,10.34997 -4.57001,1.73752 -17.82678,3.01541 -24.67696,2.37876 l -6.96278,-0.64713 2.03625,-2.16748 c 3.20668,-3.41336 2.38003,-4.03818 -1.46376,-1.10638 l -3.5,2.66958 v -2.69136 c 0,-4.86265 4.35687,-11.5631 13.85664,-21.31019 6.18663,-6.3477 10.1675,-11.38858 11.75,-14.87874 1.31635,-2.90319 2.39336,-5.73545 2.39336,-6.29391 0,-0.55847 2.475,-6.0463 5.5,-12.19517 3.025,-6.14887 5.5,-12.11411 5.5,-13.25609 0,-1.14198 0.38478,-2.50382 0.85506,-3.02632 0.47029,-0.5225 2.08396,-5 3.58595,-9.95 1.50199,-4.95 3.35526,-11.025 4.11837,-13.5 7.20789,-23.37726 8.44485,-43.07144 3.41136,-54.3141 -1.61359,-3.60406 -1.75258,-3.69124 -2.31466,-1.45175 -0.32889,1.31041 -1.2912,4.04165 -2.13846,6.06943 -0.84726,2.02778 -1.60904,4.02652 -1.69284,4.44165 -0.23561,1.16706 -7.82346,13.38285 -10.46588,16.84916 -1.2974,1.70192 -2.3589,3.41944 -2.3589,3.81672 0,0.39728 -1.06972,2.15481 -2.37715,3.90561 -2.57594,3.44947 -23.58724,46.31928 -23.50506,47.95788 0.0233,0.46414 -1.47035,4.35813 -3.15504,8.2254 -0.95838,2.2 -2.5373,6.475 -3.50871,9.5 -0.97141,3.025 -2.09641,6.4 -2.50001,7.5 -0.4036,1.1 -1.23896,3.87091 -1.85637,6.15757 -2.13342,7.90145 -8.62115,12.27337 -13.96728,9.41221 -3.60008,-1.92671 -4.64613,0.29039 -4.40107,9.32807 0.3133,11.55482 -0.98966,14.39493 -8.30111,18.09418 -5.44951,2.75721 -6.28211,2.88328 -18.18178,2.75325 -6.85892,-0.075 -12.72497,-0.3905 -13.03568,-0.70121 -0.31072,-0.31071 0.72395,-1.91024 2.29925,-3.5545 3.06161,-3.19563 1.58263,-4.28322 -2.06886,-1.52137 -3.01396,2.27964 -3.58655,1.83442 -2.85279,-2.2182 1.18062,-6.52076 4.18677,-10.6636 12.87984,-17.75 7.00203,-5.70791 8.75983,-8.04334 13.54799,-18 2.64495,-5.5 6.63722,-12.25 8.87171,-15 14.62294,-17.99654 20.02078,-28.33659 29.7558,-57 7.21628,-21.24732 9.32489,-37.68447 5.74704,-44.79966 -2.52104,-5.01353 -8.90013,-10.12858 -21.59564,-17.31636 -7.86789,-4.45454 -14.97577,-9.52623 -21.64484,-15.44424 -5.46146,-4.8464 -13.02363,-10.79465 -16.80482,-13.21833 -3.82325,-2.45064 -9.3097,-7.2508 -12.36015,-10.81405 -3.0169,-3.52405 -6.05997,-7.0142 -6.76238,-7.7559 -0.83015,-0.87658 -2.75503,-1.1952 -5.5,-0.91041 -24.28777,2.51985 -37.51727,4.00907 -44.22289,4.97809 -11.86387,1.71443 -52.35291,1.27732 -69.06972,-0.74566 -15.81946,-1.91439 -23.48893,-1.63537 -26.35549,0.95883 -3.14131,2.84286 -3.40187,10.10705 -1.59522,44.47358 1.31034,24.9254 1.43288,33.26282 0.54884,37.34216 -3.07889,14.20741 -4.95897,32.29256 -4.02845,38.75123 0.51511,3.5754 1.65001,13.47572 2.522,22.00072 0.87199,8.525 2.23628,19.27145 3.03174,23.88099 0.79547,4.60954 1.4463,10.80669 1.4463,13.77144 0,4.79482 -0.27924,5.51768 -2.52713,6.54188 -1.91632,0.87314 -2.8106,0.86796 -3.7,-0.0214 -3.41731,-3.41731 -5.14054,1.38449 -2.39469,6.67284 3.46399,6.67145 3.87384,8.226 3.36319,12.75651 -0.41496,3.68147 -1.27379,5.42195 -3.89638,7.89621 -1.85026,1.74561 -4.36806,3.71114 -5.59511,4.36784 C 258.27905,715.92102 239.70397,721 237.81729,721 c -0.40071,0 -0.0735,-1.85658 0.72707,-4.12573 z"
       id="path316"
       transform="translate(-132.5,-22.5)" />
    <g
       id="layer6"
       inkscape:label="Hooves"
       style="display:inline;fill:#784421">
      <path
         style="fill:#784421"
         d="m 456.69994,710.8336 c 6.6892,-1.697 7.69133,-3.47704 7.01228,-12.45568 -0.62846,-8.30974 -0.97447,-9.02425 -4.71222,-9.73097 -1.375,-0.25997 -3.54239,-0.87038 -4.81642,-1.35646 -2.54542,-0.97114 -4.80571,0.63534 -14.27158,10.14342 -7.11246,7.14418 -6.82829,7.6597 2.50183,4.53866 3.2526,-1.08803 6.03878,-1.85329 6.1915,-1.70057 0.15272,0.15272 -1.3835,2.10393 -3.41383,4.33603 -2.03032,2.23209 -4.58265,5.07088 -5.67183,6.30841 l -1.98032,2.25006 7.48032,-0.63371 c 4.11418,-0.34854 9.3703,-1.11317 11.68027,-1.69919 z"
         id="path350"
         transform="translate(-132.5,-22.5)" />
      <path
         style="fill:#784421"
         d="m 165.73227,710.38863 c 8.41122,-2.30556 11.28015,-7.16752 9.27947,-15.72583 -0.53523,-2.28954 -1.09432,-5.5128 -1.24244,-7.1628 -0.21788,-2.42716 -0.74667,-3.02031 -2.7693,-3.10634 -1.375,-0.0585 -3.85,-0.37782 -5.5,-0.70963 -2.71647,-0.54627 -3.4253,-0.0768 -7.5,4.96732 -9.70943,12.01941 -13.85847,17.76863 -13.38083,18.54147 0.27438,0.44395 1.82231,0.80718 3.43985,0.80718 2.46433,0 2.94098,0.40208 2.94098,2.48087 0,2.37289 0.20674,2.45608 4.75,1.91141 2.6125,-0.3132 7.10452,-1.21484 9.98227,-2.00365 z"
         id="path348"
         transform="translate(-132.5,-22.5)" />
      <path
         style="fill:#784421"
         d="m 517.5,711.89353 c 12.07908,-1.98332 14.14096,-4.39479 12.98523,-15.18689 -0.43291,-4.04239 -0.28826,-7.20616 0.38715,-8.46818 0.91231,-1.70467 0.73578,-2.0982 -1.14706,-2.55703 -1.22393,-0.29825 -3.80217,-0.95124 -5.72943,-1.45109 -3.4248,-0.88824 -3.62848,-0.76787 -9,5.31882 -3.02274,3.42519 -6.39589,6.75037 -7.49589,7.3893 -1.80536,1.04862 -7.5,8.16667 -7.5,9.37467 0,0.61255 8.64181,-2.62161 9.6207,-3.60049 0.39195,-0.39195 1.34686,-0.71264 2.12203,-0.71264 1.76658,0 -2.6285,5.86137 -4.45755,5.94467 -1.60569,0.0731 -3.55873,3.8037 -2.71014,5.17674 0.3991,0.64577 1.92561,0.81412 3.79624,0.41868 1.7208,-0.36377 5.82872,-1.10472 9.12872,-1.64656 z"
         id="path346"
         transform="translate(-132.5,-22.5)" />
      <path
         style="fill:#784421"
         d="m 256.84771,710.8158 c 4.51423,-2.16882 8.18798,-6.85583 8.08568,-10.3158 -0.0325,-1.1 -1.27932,-5.12424 -2.77065,-8.94275 -2.46349,-6.3077 -3.02942,-7.01807 -6.18713,-7.76616 -1.91158,-0.45287 -4.23093,-1.24985 -5.1541,-1.77106 -1.36305,-0.76956 -1.79655,-0.41015 -2.30668,1.91246 -0.34551,1.57307 -1.50268,3.65153 -2.57151,4.61881 -1.06883,0.96727 -1.94332,2.15775 -1.94332,2.6455 0,0.48776 -0.81941,1.76636 -1.82092,2.84135 -1.0015,1.07499 -2.82973,4.09367 -4.06273,6.70819 -1.233,2.61451 -2.66359,5.53505 -3.17909,6.49009 -0.51549,0.95504 -0.93726,1.96754 -0.93726,2.25 0,1.12215 2.82904,0.42449 4,-0.98643 0.68469,-0.825 2.5973,-1.5 4.25025,-1.5 2.93236,0 2.99025,0.0946 2.38293,3.8925 l -0.62243,3.89249 4.24462,-0.94019 c 2.33455,-0.5171 6.2011,-1.88016 8.59234,-3.029 z"
         id="path344"
         transform="translate(-132.5,-22.5)" />
    </g>
    <g
       id="layer3"
       inkscape:label="Body"
       style="display:inline;fill:#d45500">
      <path
         style="fill:#d45500"
         d="m 443.60729,491.35844 c 4.687,-0.55086 5.19263,-0.80899 3.66492,-1.87096 -3.38873,-2.35564 -7.76296,-2.71527 -9.43083,-0.77536 -2.84446,3.3084 -3.34184,4.6939 -1.42034,3.95655 0.96202,-0.36916 4.19583,-0.95876 7.18625,-1.31023 z"
         id="path394"
         transform="translate(-132.5,-22.5)" />
      <path
         style="fill:#d45500"
         d="m 465.48725,684.20637 c 0.0203,-2.62519 4.90299,-3.82864 9.212,-2.27048 3.5491,1.28337 3.75688,1.22983 5.96274,-1.53658 1.25702,-1.57646 2.56505,-4.89871 2.90673,-7.3828 0.53545,-3.89275 3.12808,-11.79653 6.4839,-19.76651 0.52106,-1.2375 1.37173,-3.2625 1.89037,-4.5 0.51865,-1.2375 2.09365,-4.85084 3.5,-8.02964 1.40636,-3.17879 2.55701,-6.21629 2.55701,-6.75 0,-0.5337 0.40122,-0.97036 0.89159,-0.97036 0.49038,0 1.17852,-1.1432 1.5292,-2.54044 0.67435,-2.68679 6.6449,-16.23556 9.01594,-20.45956 0.77183,-1.375 2.49586,-4.75 3.83118,-7.5 2.16988,-4.4687 14.02988,-23.05892 16.74671,-26.25 0.58533,-0.6875 0.76639,-1.25 0.40236,-1.25 -0.36403,0 -0.21662,-0.5625 0.32757,-1.25 C 532.44606,571.60041 536,561.05694 536,558.15865 c 0,-4.33461 -10.74538,-13.52452 -20.07547,-17.16938 -15.58973,-6.09023 -24.00289,-11.17158 -32.59487,-19.68653 -4.65341,-4.61169 -9.0036,-9.6039 -9.66709,-11.09381 -2.41726,-5.42816 -8.68228,-14.08041 -10.64704,-14.704 C 461.90699,495.15309 461,494.44555 461,493.93261 c 0,-1.2372 -10.13622,-1.18892 -17.56634,0.0837 C 431.33646,496.08825 431,496.11323 431,494.93922 c 0,-0.63328 1.441,-2.97082 3.20222,-5.19454 l 3.20222,-4.04314 -3.95222,0.71346 c -2.17372,0.3924 -5.63379,1.204 -7.68903,1.80356 l -3.73682,1.09011 2.73682,2.67738 c 1.50524,1.47256 4.31181,4.44061 6.23681,6.59567 3.55121,3.97561 4.59447,4.80785 13.5,10.76942 2.75,1.84091 7.925,6.14234 11.5,9.55874 3.575,3.4164 7.97444,7.12837 9.77652,8.24883 1.80209,1.12045 3.91791,2.67858 4.70183,3.4625 0.78392,0.78391 5.54142,3.51359 10.57223,6.06595 11.56884,5.8694 18.86192,12.38192 21.21386,18.94338 2.62301,7.31767 1.9894,21.38672 -1.57035,34.86946 -1.31231,4.97045 -7.02828,22.10097 -7.67444,23 -0.39531,0.55 -2.43155,5.275 -4.525,10.5 -5.82428,14.53675 -11.53263,24.23076 -20.74465,35.2289 -2.0625,2.4624 -3.75,4.85611 -3.75,5.31937 0,0.46326 -1.08089,1.99192 -2.40198,3.39701 -1.32109,1.4051 -3.1502,4.79369 -4.06469,7.5302 -0.91449,2.73652 -2.14772,5.55989 -2.74052,6.27417 -1.31995,1.59044 -1.41953,1.51855 4.70719,3.39832 5.40485,1.65829 5.96786,1.56975 5.98725,-0.9416 z"
         id="path352"
         transform="translate(-132.5,-22.5)" />
      <path
         style="fill:#d45500"
         d="m 176.82134,678.5 c 2.39192,-3.04084 4.26959,-3.162 6.7377,-0.43476 1.64637,1.81922 1.93725,1.87072 2.44181,0.43234 0.31503,-0.8981 0.18382,-5.76496 -0.29158,-10.81524 -1.06113,-11.27258 -0.12636,-19.28327 5.33069,-45.68234 3.09446,-14.96979 4.39412,-19.89667 6.46164,-24.49534 3.59983,-8.0069 4.36308,-11.22597 5.9828,-25.23289 1.44673,-12.51091 3.53569,-22.87723 5.1299,-25.45671 0.39462,-0.63852 1.05006,-2.77061 1.45652,-4.738 0.40646,-1.96738 2.12342,-8.75206 3.81546,-15.07706 4.96489,-18.55921 5.36502,-29 1.11138,-29 -2.88985,0 -21.22229,-6.47927 -29.13909,-10.2987 C 182.08636,485.88142 179,484.74772 179,485.18197 c 0,0.43425 0.86,6.53345 1.91111,13.55379 2.79897,18.69428 4.101,32.50494 4.09457,43.43133 -0.006,9.85553 -0.19005,10.58248 -5.80202,22.89008 -3.10279,6.80473 -4.53631,16.87509 -3.81401,26.7932 1.8775,25.78044 1.84559,29.38185 -0.36896,41.64963 -1.19142,6.6 -2.53494,14.29089 -2.9856,17.09087 -0.45067,2.79998 -1.31078,5.94998 -1.91136,7 -1.2924,2.25955 -6.15683,20.70936 -5.60553,21.26067 0.49536,0.49536 6.50076,1.91438 8.65922,2.0461 0.92258,0.0563 2.56234,-1.02264 3.64392,-2.39764 z"
         id="path392"
         transform="translate(-132.5,-22.5)" />
      <path
         style="fill:#d45500"
         d="m 534.9923,681.77273 c 1.54829,-0.96692 2.65025,-0.96867 5.19469,-0.008 1.85687,0.70089 3.60316,0.84537 4.10861,0.33992 0.48349,-0.48349 1.03234,-5.64813 1.21966,-11.47696 0.33171,-10.32184 1.00921,-14.60731 2.47056,-15.62744 0.39394,-0.275 1.95909,-4.325 3.4781,-9 1.51902,-4.675 3.89362,-11.2 5.27689,-14.5 6.81017,-16.24672 11.29185,-26.81557 12.29733,-29 0.50632,-1.1 1.3788,-3.125 1.93884,-4.5 0.56003,-1.375 1.42993,-3.175 1.9331,-4 2.58013,-4.23036 11.28063,-23.32136 11.71162,-25.69809 0.27325,-1.50688 0.92168,-3.25172 1.44097,-3.87742 2.03476,-2.45173 2.78337,-10.60941 1.34716,-14.68007 -1.72745,-4.89611 -4.8227,-7.40921 -13.84912,-11.24442 -7.57034,-3.21654 -18.20871,-9.07747 -18.73797,-10.32319 -0.17751,-0.4178 -2.03031,-2.04723 -4.11735,-3.62094 -9.63906,-7.26827 -17.66334,-23.27575 -17.69262,-35.29471 -0.0184,-7.54244 3.43435,-19.03107 9.05241,-30.12106 2.68596,-5.30205 5.29162,-10.12636 5.79036,-10.72068 0.49873,-0.59432 2.77594,-4.48627 5.06046,-8.64879 2.28453,-4.16252 6.0505,-9.72354 8.36884,-12.35784 4.13755,-4.70144 4.21327,-4.91965 4.11269,-11.85121 -0.1038,-7.15292 -0.41778,-8.14403 -7.1962,-22.7156 -4.73112,-10.17048 -6.19985,-13.59173 -6.22357,-14.49711 C 551.96553,377.88199 551.07554,376.375 550,375 c -1.07554,-1.375 -1.96553,-3.2875 -1.97776,-4.25 -0.0122,-0.9625 -0.40225,-1.75 -0.8667,-1.75 -0.46445,0 -2.15195,-1.12445 -3.75,-2.49878 -1.59805,-1.37433 -3.44661,-2.49933 -4.10792,-2.5 C 537.85458,363.99976 528,373.67201 528,375.08983 c 0,0.54702 -0.44322,1.53809 -0.98493,2.20238 -0.5417,0.66428 -2.17031,2.68645 -3.61911,4.49371 -1.44881,1.80725 -3.90824,3.94475 -5.46542,4.75 -3.22093,1.66561 -8.37195,1.98732 -7.43054,0.46408 0.33992,-0.55 1.50731,-1 2.5942,-1 1.86643,0 6.12355,-2.25491 8.47119,-4.48703 0.58597,-0.55714 2.26053,-3.03797 3.72125,-5.51297 2.38122,-4.03467 3.8622,-5.7527 10.64169,-12.34504 3.50619,-3.40941 11.25223,0.97194 17.57819,9.94264 8.21261,11.64613 10.89552,13.86576 20.39472,16.873 2.39106,0.75696 2.39841,0.73603 1.73198,-4.93419 -1.07814,-9.17335 -5.93398,-20.44191 -10.87098,-25.22744 -7.25799,-7.03529 -19.36359,-12.3829 -32.31613,-14.27553 -9.85378,-1.43984 -16.25856,-2.60647 -21.44611,-3.90639 -5.23386,-1.31152 -31.44091,-6.43086 -41.19055,-8.04625 -5.55494,-0.92038 -9.37392,-0.76615 -22.5,0.90865 -19.06529,2.4326 -33.41235,4.4004 -46.80945,6.42027 -32.03448,4.82979 -66.54572,6.06192 -86.5,3.08824 -6.325,-0.94258 -12.175,-2.06819 -13,-2.50137 -1.55668,-0.81734 -11.90025,-3.41177 -18,-4.51486 -8.27978,-1.49732 -16.55449,-3.83377 -17.23469,-4.86639 -0.40408,-0.61343 -0.7576,0.45966 -0.78562,2.38466 -0.12618,8.67054 -4.92513,20.92568 -9.98862,25.50808 -3.20913,2.90423 -2.29924,0.0882 1.99844,-6.18483 3.40944,-4.97657 4.08045,-6.84103 4.61501,-12.82325 0.45171,-5.05502 0.14543,-8.94498 -1.1023,-14 C 258.31999,318.65894 257,317.11578 257,323.40566 c 0,5.90747 -2.35908,15.30205 -5.65432,22.51716 -3.28429,7.19115 -11.85479,15.31447 -22.76499,21.57718 -15.29986,8.78247 -20.71179,14.10387 -23.00119,22.61642 -1.34365,4.99604 -1.45262,5.12777 -1.51369,1.82992 -0.15644,-8.44746 8.24558,-18.03989 22.93419,-26.18353 3.575,-1.98205 9.2548,-6.24062 12.62179,-9.4635 12.32937,-11.80167 14.19464,-19.71743 14.59905,-61.95487 0.15354,-16.03556 0.005,-28.98547 -0.33073,-28.77758 -0.33543,0.20789 -3.20069,4.23179 -6.36723,8.94199 -5.12112,7.61764 -8.2939,11.08739 -21.16047,23.14115 -3.55293,3.32848 -4.40873,7.52643 -2.32723,11.41574 0.60677,1.13376 0.64726,1.93426 0.0978,1.93426 -0.51555,0 -1.43138,-1.41715 -2.03518,-3.14922 -2.13532,-6.12536 -1.48739,-7.83211 5.65217,-14.88875 9.73149,-9.61846 22.21692,-25.55466 26.25,-33.50508 0.825,-1.62632 2.09235,-3.42274 2.81633,-3.99204 0.72398,-0.56929 1.57073,-2.93179 1.88167,-5.25 L 259.26334,246 h -5.26565 c -4.88737,0 -7.91124,-0.5619 -16.99769,-3.15854 -11.40801,-3.26008 -18.06608,-13.60333 -19.49979,-30.29274 -0.37321,-4.34437 -1.50106,-8.75092 -3.00741,-11.75 -2.84503,-5.66432 -2.00496,-6.33557 1.38445,-1.10624 1.59864,2.46644 2.96322,7.12966 4.1663,14.23762 2.08818,12.3372 2.85787,14.61087 6.35184,18.76321 3.235,3.84458 9.37454,6.77555 18.57736,8.86868 6.16791,1.40287 9.35459,1.47306 23.97081,0.52798 9.27147,-0.59948 23.76454,-1.09897 32.20683,-1.10996 15.62954,-0.0204 31.08828,-1.81868 33.1228,-3.8532 0.83575,-0.83575 0.22045,-1.12681 -2.38206,-1.12681 -3.2937,0 -7.98729,-2.25937 -6.88956,-3.31645 0.27414,-0.26398 3.29921,0.20865 6.72239,1.05031 5.6993,1.40128 6.4369,1.39076 8.75,-0.12484 1.84548,-1.20921 2.52191,-2.52452 2.51073,-4.88207 -0.0191,-4.01787 -0.55275,-4.77642 -5.29185,-7.5216 -3.75471,-2.17497 -7.68385,-2.91738 -7.70231,-1.45535 -0.005,0.4125 -2.03021,1.63835 -4.5,2.72412 -2.46979,1.08577 -4.49053,2.25204 -4.49053,2.59171 0,0.33968 -1.88594,1.18264 -4.19097,1.87324 -7.58427,2.2723 -8.79628,2.93059 -8.20975,4.45904 0.73325,1.91083 5.65401,3.58398 10.79994,3.67218 3.20709,0.055 3.66492,0.25758 2.10078,0.92971 -3.00073,1.28946 -9.67164,1.13581 -12.5,-0.28791 -2.81313,-1.41605 -3.88079,-5.94588 -1.94981,-8.27256 0.65708,-0.79174 2.32143,-1.43953 3.69855,-1.43953 2.31527,0 12.27999,-4.50586 16.49726,-7.45975 1.70098,-1.19141 1.64067,-1.38369 -0.96587,-3.07964 -1.52907,-0.99489 -6.38589,-4.81378 -10.79294,-8.48642 -4.40705,-3.67263 -9.35705,-7.38095 -11,-8.24071 -1.64295,-0.85975 -4.882,-3.19642 -7.19787,-5.1926 -3.3614,-2.89737 -4.55695,-4.86348 -5.92741,-9.74778 -1.47969,-5.27358 -2.69325,-7.09693 -8.78932,-13.20573 -3.88992,-3.89805 -8.00858,-7.76237 -9.15257,-8.58737 -1.144,-0.825 -3.34553,-4.0283 -4.8923,-7.11845 C 265.37758,148.5882 261.90765,146 256.62046,146 c -3.48181,0 -3.54487,0.0686 -2.52611,2.74817 0.57467,1.51149 1.71452,3.48814 2.533,4.39255 0.81848,0.90441 1.81656,2.87239 2.21797,4.37329 0.48928,1.8295 2.17183,3.50019 5.10506,5.06909 8.46931,4.52997 15.03396,13.03473 14.9875,19.4169 -0.0137,1.87628 -0.58428,1.18882 -2.28717,-2.75547 -2.83698,-6.5711 -7.29845,-11.23331 -13.989,-14.61842 -6.70891,-3.3944 -9.41676,-3.30917 -15.8677,0.49947 -2.91171,1.71906 -7.02163,3.3587 -9.13317,3.64363 -3.22006,0.4345 -4.22793,0.0988 -6.25,-2.08194 C 229.3296,164.44274 229,163.10839 229,156.92707 v -7.16022 l -2.75,0.68792 c -1.5125,0.37836 -4.2125,0.93005 -6,1.22598 -1.7875,0.29593 -3.25,0.93883 -3.25,1.42866 0,0.48982 0.3375,0.8941 0.75,0.89839 1.1985,0.0125 3.25,5.14025 3.25,8.12347 0,3.81674 -4.51544,6.86873 -10.16233,6.86873 -4.62454,0 -11.5643,-3.11443 -17.83767,-8.00522 -9.69551,-7.55872 -19.58158,-9.61159 -24.41803,-5.07047 -1.42008,1.33338 -2.57508,2.00838 -2.56666,1.5 0.0579,-3.49394 6.95848,-6.84402 12.32866,-5.9853 3.67667,0.58793 13.41683,5.05944 14.67365,6.73639 0.2847,0.37986 3.10135,2.24649 6.25924,4.14807 6.90725,4.15933 11.87043,5.27238 15.95876,3.57893 2.75674,-1.14187 2.94279,-1.53559 2.45262,-5.19009 -0.29173,-2.17496 -1.03837,-4.46249 -1.6592,-5.08339 -0.62084,-0.62091 -6.057,-1.41186 -12.08037,-1.75768 -6.02336,-0.34581 -11.51341,-1.05582 -12.20012,-1.5778 -0.6867,-0.52198 -3.49855,-1.77103 -6.24855,-2.77567 -2.75,-1.00464 -7.661,-3.1041 -10.91334,-4.66547 -5.8083,-2.78843 -17.9311,-5.8523 -23.15579,-5.8523 -2.47932,0 -2.61133,0.22454 -2.01158,3.42148 1.54431,8.23187 3.94523,13.94954 7.87415,18.75189 5.33191,6.51723 12.74902,9.54726 25.48262,10.41013 4.79817,0.32514 11.05243,1.22955 13.89836,2.0098 4.48625,1.22996 5.32191,1.86555 6.28347,4.77911 1.3152,3.98509 -0.31894,9.75992 -5.01615,17.7264 -1.61796,2.74406 -2.94174,5.23743 -2.94174,5.54083 0,0.30339 -0.90665,1.8249 -2.01479,3.38112 -3.05761,4.29402 -14.00926,25.81699 -16.01776,31.47924 -0.97547,2.75 -3.11695,7.925 -4.75883,11.5 -3.83899,8.3589 -10.70342,28.64058 -12.71295,37.56172 -0.85959,3.81605 -1.98208,8.06328 -2.49443,9.43828 C 155.81922,298.17224 153,328.42669 153,337.93935 c 0,3.95567 0.47621,8.08194 1.05824,9.16948 1.12988,2.1112 3.69334,13.78102 4.47924,20.39117 l 0.47557,4 -1.38848,-4 c -0.76367,-2.2 -2.18339,-6.79778 -3.15495,-10.21729 -0.97156,-3.4195 -2.08795,-6.0186 -2.48087,-5.77576 -0.39292,0.24284 -1.28128,2.59062 -1.97414,5.21729 -0.69285,2.62667 -2.32024,8.37576 -3.61643,12.77576 -5.9109,20.06502 -8.5406,33.06861 -9.1003,45 -0.55527,11.8372 -0.52085,12.09248 2.53709,18.81661 4.92854,10.83738 11.93513,20.48605 21.801,30.02182 10.59504,10.24054 18.23155,16.16687 25.62626,19.88731 6.60237,3.32181 24.40875,9.77426 26.97334,9.77426 1.70356,0 1.55661,-0.47459 -1.24048,-4.0062 -3.02602,-3.82066 -7.98204,-12.65477 -7.9909,-14.2438 -0.0112,-2.01491 1.70223,-0.28626 3.48066,3.51147 1.09167,2.33119 2.22706,4.46353 2.5231,4.73853 0.29604,0.275 1.30061,1.625 2.23239,3 0.93178,1.375 3.06082,4.43127 4.73119,6.79171 5.42704,7.66905 7.45028,12.17 14.92759,33.20829 2.05252,5.775 4.37738,11.625 5.16637,13 1.73219,3.01878 1.88792,24.14029 0.19316,26.19865 -0.58931,0.71574 -1.3789,3.3669 -1.75463,5.89146 -0.75749,5.08956 1.24167,12.89164 5.99841,23.40989 8.27777,18.30408 8.48868,19.2611 9.14568,41.5 0.44041,14.90713 0.20716,22.08199 -0.99031,30.46237 -0.86152,6.0293 -1.47447,11.01122 -1.3621,11.07094 2.75226,1.46279 11.7043,3.9715 11.7043,3.28 0,-1.51963 2.7033,-3.81331 4.49431,-3.81331 0.90045,0 2.50759,0.46583 3.57143,1.03518 2.52988,1.35395 2.52148,0.0283 -0.0804,-12.6885 -1.94995,-9.53062 -2.66274,-15.21478 -5.37293,-42.84668 -1.28493,-13.10055 -0.95351,-20.94849 1.34629,-31.88011 1.34254,-6.38145 1.79503,-35.38976 1.06259,-68.11989 -0.30799,-13.76256 -0.0767,-21.25318 0.74168,-24.01824 0.65409,-2.21004 3.66876,-6.93504 6.69927,-10.5 5.72345,-6.73285 6.53719,-8.90737 4.09251,-10.93628 -1.73687,-1.44148 -4.90038,-10.54375 -4.27485,-12.29994 0.244,-0.68505 2.29636,2.7344 4.56081,7.59877 l 4.11716,8.8443 -2.61841,3.43291 c -1.44012,1.88811 -2.41037,3.64095 -2.15611,3.89521 0.25426,0.25427 6.27952,0.94253 13.38945,1.52947 7.10993,0.58694 15.62715,1.48826 18.92715,2.00293 7.73289,1.20602 47.93646,1.23091 54.20078,0.0335 2.63957,-0.50453 10.19922,-1.43756 16.79922,-2.0734 6.6,-0.63584 16.5,-1.75809 22,-2.49388 21.9269,-2.93339 28.13155,-3.80998 31.14258,-4.39981 l 3.14258,-0.61559 -2.53752,-8 c -4.0474,-12.76016 -4.41163,-13.55029 -7.66133,-16.61939 -4.48326,-4.2341 -9.52738,-5.55536 -13.54911,-3.54905 -3.7928,1.89209 -3.75343,-0.10243 0.0418,-2.11615 8.05783,-4.27546 20.09436,5.33282 22.93399,18.30727 1.66036,7.58627 5.4531,12.2816 12.96217,16.04687 3.56132,1.78576 8.14203,3.51338 10.17935,3.83916 2.42096,0.38713 4.8546,1.79277 7.02487,4.05749 4.76774,4.97523 7.55409,8.24973 7.96397,9.35918 1.06991,2.89599 13.57185,16.63986 18.3412,20.16318 3.05312,2.25547 11.2806,6.84871 18.2833,10.20719 22.02813,10.56466 31.44358,18.09137 36.89292,29.49223 2.38531,4.99045 2.83383,7.34685 3.17295,16.66977 0.41912,11.52275 -1.41656,24.62699 -4.78276,34.14225 -0.97286,2.75 -2.92251,9.05 -4.33255,14 -3.89339,13.66788 -8.13385,25.24497 -12.08725,33 -1.96268,3.85 -4.45836,9.5875 -5.54596,12.75 l -1.97745,5.75 2.69614,0.0354 c 1.48288,0.0195 3.82114,0.67854 5.19614,1.46456 3.07811,1.7596 2.64898,1.73616 4.9923,0.27273 z"
         id="path354"
         transform="translate(-132.5,-22.5)" />
    </g>
    <g
       id="layer1"
       inkscape:label="Lines"
       transform="translate(-132.5,-22.5)"
       style="display:inline">
      <path
         style="display:inline;fill:#000000"
         d="m 258,199.27264 c -2.84579,-0.51792 -6.19106,-3.15449 -5.47416,-4.31445 0.26327,-0.42598 2.35663,0.13282 4.65191,1.24178 5.13061,2.47884 10.96267,1.95619 14.42054,-1.29231 1.32094,-1.24096 2.40171,-1.80223 2.40171,-1.24727 0,0.55496 -1.3461,2.2084 -2.99134,3.67431 -2.9847,2.65938 -6.31702,3.1558 -13.00866,1.93794 z"
         id="path386" />
      <path
         style="fill:#000000"
         d="m 338.56421,366.92904 c 2.47959,-2.7399 11.38492,-6.75327 16.69163,-7.52241 8.25285,-1.19614 36.32497,-6.4283 42.20258,-7.86583 3.27713,-0.80151 6.13827,-1.27745 6.35808,-1.05763 0.51031,0.51031 -6.63479,3.51683 -8.35786,3.51683 -0.71341,0 -3.92095,0.62399 -7.12787,1.38664 -5.92709,1.40954 -9.78749,2.17064 -25.83077,5.0927 -10.94707,1.99386 -20.92819,5.12674 -22.54676,7.077 -0.65897,0.79402 -1.66277,1.44366 -2.23067,1.44366 -0.5679,0 -0.18916,-0.93193 0.84164,-2.07096 z"
         id="path384" />
      <path
         style="fill:#000000"
         d="m 316,376.16632 c 0,-0.47705 2.1375,-2.27931 4.75,-4.00503 2.6125,-1.72571 6.6183,-4.65758 8.90179,-6.51527 4.85078,-3.94627 17.00551,-9.17028 23.09844,-9.92753 5.14428,-0.63935 4.69551,0.93101 -0.53531,1.87317 -2.04321,0.36802 -4.16492,1.00848 -4.71492,1.42326 -0.55,0.41477 -2.40169,1.0535 -4.11487,1.41938 -1.71317,0.36589 -4.05686,1.54285 -5.20818,2.61547 -1.15133,1.07263 -2.44964,1.98011 -2.88514,2.01662 -0.43549,0.0365 -2.81681,1.60433 -5.29181,3.48403 -5.50084,4.17776 -14,8.80124 -14,7.6159 z"
         id="path382" />
      <path
         style="fill:#000000"
         d="m 306,376.44377 c 0,-0.30593 1.9125,-1.40896 4.25,-2.45119 2.37654,-1.05963 7.76618,-5.443 12.22654,-9.94377 6.7976,-6.85919 8.46908,-8.04881 11.30902,-8.04881 1.967,0 3.07924,0.40975 2.71444,1 -0.33992,0.55 -1.51997,1 -2.62234,1 -1.12499,0 -5.40626,3.24063 -9.75871,7.38669 C 315.70857,373.39825 306,379.3229 306,376.44377 Z"
         id="path380" />
      <path
         style="fill:#000000"
         d="m 512.45531,397.69119 c 3.74144,-2.27931 12.74817,-11.18344 14.34094,-14.17756 1.28881,-2.42274 1.67816,-2.66137 1.98574,-1.21705 0.75748,3.55694 -12.51318,16.79784 -16.68203,16.64461 -1.28595,-0.0473 -1.2162,-0.29259 0.35535,-1.25 z"
         id="path378" />
      <path
         style="fill:#000000"
         d="m 443.87244,410.34323 c -0.86308,-1.04189 -1.36427,-4.10375 -1.35043,-8.25 0.0197,-5.91155 0.57057,-7.71388 5.32773,-17.43216 2.91815,-5.96142 5.55344,-10.59122 5.8562,-10.28846 0.30276,0.30276 -0.47217,2.70528 -1.72207,5.33893 -6.79153,14.31037 -7.28782,15.8145 -7.38565,22.38407 -0.0633,4.24932 0.39001,7.18413 1.27422,8.25 0.75485,0.90991 0.92245,1.65439 0.37245,1.65439 -0.55,0 -1.6176,-0.74555 -2.37245,-1.65677 z"
         id="path376" />
      <path
         style="fill:#000000"
         d="m 447.82073,431.48613 c -0.26449,-2.75263 -1.11986,-6.20934 -1.90081,-7.68157 -8.57951,-16.17385 -10.2146,-21.98309 -7.04427,-25.02729 1.10177,-1.05794 1.21655,-0.57696 0.66839,2.80096 -0.59146,3.64482 -0.071,5.20463 4.89708,14.67739 5.38796,10.27326 6.3195,13.93563 4.63941,18.23983 -0.5822,1.49152 -0.90035,0.73154 -1.2598,-3.00932 z"
         id="path374" />
      <path
         style="fill:#000000"
         d="m 442.03885,441.95094 c 2.79382,-3.52747 3.11456,-4.52579 2.48997,-7.75 -0.39432,-2.03551 -0.95069,-4.93844 -1.23638,-6.45094 -0.28569,-1.5125 -0.11119,-2.75 0.38778,-2.75 1.28275,0 3.65391,11.37188 2.87976,13.81103 -0.98162,3.09281 -4.52374,7.18897 -6.21659,7.18897 -1.06944,0 -0.57363,-1.18409 1.69546,-4.04906 z"
         id="path372" />
      <path
         style="fill:#000000"
         d="m 532.20225,452.65289 c -1.5317,-7.62691 -6.15747,-14.87996 -15.80015,-24.77412 -10.104,-10.36752 -10.48332,-12.06623 -4.41,-19.74956 2.19566,-2.77771 4.86871,-5.51953 5.94012,-6.09293 1.0714,-0.5734 3.40071,-3.06539 5.17622,-5.53775 1.77552,-2.47237 3.41592,-4.3075 3.64534,-4.07808 1.21802,1.21801 -3.72301,8.18624 -9.23793,13.02808 -8.69044,7.62978 -9.28828,11.56237 -2.74766,18.0741 11.92381,11.87111 17.46055,20.63864 18.77298,29.72737 0.93085,6.44615 -0.009,6.02721 -1.33892,-0.59711 z"
         id="path370" />
      <path
         style="fill:#000000"
         d="m 375,474.97606 c 0,-0.553 1.43732,-1.87954 3.19404,-2.94787 1.75672,-1.06832 5.40288,-3.87421 8.10257,-6.2353 2.6997,-2.36109 6.32488,-5.52689 8.05597,-7.03512 1.73108,-1.50823 3.82242,-3.33956 4.64742,-4.06963 5.05022,-4.46909 12,-7.78422 12,-5.72414 0,0.60432 -0.7875,1.38932 -1.75,1.74444 -0.9625,0.35512 -1.975,0.90477 -2.25,1.22143 -0.275,0.31667 -2.31486,1.80553 -4.53303,3.30858 -2.21817,1.50306 -5.797,4.5393 -7.95295,6.74719 -2.15595,2.2079 -4.43384,4.01436 -5.06198,4.01436 -0.62814,0 -1.96537,0.90974 -2.97162,2.02164 C 383.98379,470.78038 375,476.22243 375,474.97606 Z"
         id="path368" />
      <path
         style="fill:#000000"
         d="M 509.27041,473.07191 C 498.86019,461.94532 496.02304,457.10958 496.02736,450.5 c 0.002,-2.75 0.40265,-5.63081 0.89079,-6.4018 0.58541,-0.92463 0.9011,0.35143 0.92741,3.74876 0.022,2.83281 0.68585,6.38861 1.47535,7.9018 0.7895,1.51318 2.00783,3.97289 2.7074,5.46602 0.69957,1.49313 4.30847,5.82441 8.01978,9.62508 6.48091,6.63696 9.89374,11.23349 8.23709,11.09405 -0.43185,-0.0364 -4.4885,-4.02425 -9.01477,-8.862 z"
         id="path366" />
      <path
         style="fill:#000000"
         d="M 214.17061,482.68161 C 212.97677,481.41083 212,479.85094 212,479.21518 c 0,-0.63575 -1.08971,-3.53826 -2.42158,-6.45002 -1.33186,-2.91176 -3.00325,-7.15785 -3.71418,-9.43577 -1.10441,-3.53865 -1.99079,-4.44652 -6.08796,-6.23552 -2.63745,-1.15163 -5.12856,-2.09575 -5.53582,-2.09806 -1.62666,-0.009 -10.69084,-5.12415 -15.27334,-8.61881 -9.07558,-6.92112 -16.269,-20.38043 -17.92005,-33.52943 -0.48443,-3.85804 -1.06053,-7.19436 -1.28022,-7.41405 -0.59711,-0.59711 -8.94234,7.60183 -11.41344,11.21336 -1.18425,1.73078 -2.45355,4.09328 -2.82068,5.25 -0.70111,2.20899 -3.53273,2.95146 -3.53273,0.9263 0,-2.58858 7.82689,-12.30895 13.62835,-16.92531 3.38538,-2.69383 6.42893,-4.89787 6.76344,-4.89787 0.33452,0 0.61423,3.2625 0.62159,7.25 0.01,5.35926 0.75501,9.3805 2.85714,15.41934 4.22663,12.14191 9.88223,18.79555 22.01136,25.89566 4.16697,2.43925 8.1109,4.435 8.76431,4.435 0.6534,0 3.25031,0.88401 5.7709,1.96446 3.47754,1.49065 4.58291,2.49987 4.58291,4.18428 0,1.2209 0.84506,4.04939 1.87791,6.28554 6.16226,13.34148 8.11841,17.90274 7.81004,18.2111 -0.1907,0.19071 -1.3235,-0.69299 -2.51734,-1.96377 z"
         id="path364" />
      <path
         style="fill:#000000"
         d="m 337.5,486 c 0.33992,-0.55 1.69452,-1 3.01023,-1 3.74166,0 13.15928,-2.69524 18.21195,-5.21209 2.52617,-1.25835 7.67594,-5.15263 11.44393,-8.65395 9.3416,-8.68045 13.73141,-12.07013 16.5464,-12.77665 4.29331,-1.07756 3.41532,0.27951 -2.57165,3.97488 -3.2392,1.99936 -6.64483,4.78802 -7.56805,6.19704 -0.92323,1.40901 -2.77979,3.06358 -4.1257,3.67682 -1.34591,0.61324 -2.44996,1.60525 -2.45343,2.20447 -0.006,1.01969 -1.08484,1.75897 -9.93326,6.80627 C 353.86311,484.75186 335.92027,488.55606 337.5,486 Z"
         id="path362" />
      <path
         style="fill:#000000"
         d="m 515.5,488.94405 c -1.1,-1.6776 -4.475,-4.75535 -7.5,-6.83942 -12.30114,-8.47488 -17.06607,-14.19223 -16.9225,-20.30497 0.0747,-3.1805 0.13914,-3.12472 1.78427,1.54473 1.516,4.30296 9.21607,13.65561 11.24271,13.65561 0.60798,0 7.89533,5.55385 10.17073,7.75134 1.96485,1.89757 4.72479,5.63704 4.72479,6.40167 0,1.73331 -1.5611,0.74806 -3.5,-2.20896 z"
         id="path360" />
      <path
         style="fill:#000000"
         d="m 569,574.12212 c 0,-1.23992 2.77041,-8.09544 4.61232,-11.4134 1.07994,-1.94539 1.34716,-3.98908 0.88176,-6.74375 -0.89302,-5.28573 -4.63684,-7.9627 -11.14845,-7.97156 -5.57117,-0.008 -8.38737,-1.57381 -14.46091,-8.04248 -8.38248,-8.92782 -16.61761,-18.58352 -17.90003,-20.9878 -3.61858,-6.78409 -18.97892,-23.66115 -25.69701,-28.23439 -1.80071,-1.22581 -3.27709,-2.55212 -3.28085,-2.94736 -0.0223,-2.34739 11.16913,5.58729 18.14564,12.86517 2.55886,2.6694 7.88518,9.35345 11.83627,14.85345 9.1962,12.80132 21.7386,27.27222 25.2116,29.08811 1.48519,0.77654 5.1135,1.41189 8.06291,1.41189 4.607,0 5.75247,0.40697 8.12985,2.88842 4.56763,4.76758 4.60194,9.70101 0.12955,18.63149 C 569.93539,574.68299 569,576.04848 569,574.12212 Z"
         id="path358" />
      <path
         style="fill:#000000"
         d="m 255.73356,606.35685 c -0.85387,-1.3566 -3.7027,-13.30122 -4.42504,-18.55335 -0.34007,-2.47269 0.0859,-4.79018 1.28668,-7 1.48336,-2.72987 1.81374,-5.90815 1.90261,-18.3035 0.11604,-16.18633 1.47695,-27.81136 3.94725,-33.71788 0.85522,-2.04484 1.55494,-4.63234 1.55494,-5.75 0,-1.11767 0.45,-2.03212 1,-2.03212 1.29693,0 1.31716,-0.20495 -0.92027,9.32281 -3.10796,13.23478 -3.86422,23.49356 -2.9458,39.95978 0.21916,3.92927 -0.27263,6.37093 -1.91964,9.5308 -2.73017,5.23794 -2.75015,7.22375 -0.16957,16.8535 1.95055,7.27868 2.30443,12.25676 0.68884,9.68996 z"
         id="path356" />
    </g>
    <g
       id="layer5"
       inkscape:label="Eye"
       style="display:inline">
      <path
         style="fill:#000000"
         d="m 267,191.34027 c -6.94022,-1.07535 -11.06807,-2.81529 -14.09982,-5.94325 -3.27223,-3.37609 -3.27744,-3.39713 -0.84635,-3.41438 1.34539,-0.01 5.48453,-0.66123 9.19809,-1.44818 5.90958,-1.2523 7.19335,-1.24636 10.29031,0.0476 1.94612,0.81314 3.30021,1.86383 3.00909,2.33487 -0.29111,0.47103 0.14075,1.41251 0.95969,2.09218 0.81894,0.67966 1.48899,2.25317 1.48899,3.49667 0,3.05851 -3.02334,3.91546 -10,2.83446 z"
         id="path388"
         transform="translate(-132.5,-22.5)" />
      <path
         style="fill:#ffff00"
         d="m 267.12816,186.75 c 0.65919,-1.2375 1.91252,-2.8404 2.78518,-3.562 1.34105,-1.1089 0.96746,-1.1998 -2.41334,-0.58722 -2.2,0.39862 -6.025,1.0229 -8.5,1.38729 l -4.5,0.66252 4.5,2.15274 c 5.69059,2.72231 6.653,2.71599 8.12816,-0.0533 z"
         id="path390"
         transform="translate(-132.5,-22.5)" />
    </g>
    <g
       id="layer4"
       inkscape:label="Atlers"
       style="display:inline">
      <path
         style="fill:#ffeeaa"
         d="m 233.97246,79.529315 c 1.71895,-1.829743 2.04352,-2.805131 1.25113,-3.7599 -2.88517,-3.476428 -2.57575,-15.667357 0.91669,-36.116633 0.54924,-3.215969 0.74827,-6.097562 0.4423,-6.40354 -0.77091,-0.770908 -3.32103,5.584884 -4.57785,11.409619 -1.3633,6.318241 -4.87403,13.209398 -7.65934,15.034401 -3.50836,2.298763 -7.46249,1.280613 -10.06309,-2.591145 -2.12131,-3.158201 -2.28009,-3.22874 -2.25103,-1 0.0544,4.170376 4.5973,11.926932 11.14155,19.023048 3.47995,3.773408 6.81124,6.863912 7.40287,6.867788 0.59162,0.0039 2.12017,-1.104761 3.39677,-2.463638 z"
         id="path400"
         transform="translate(-132.5,-22.5)" />
      <path
         style="fill:#ffeeaa"
         d="m 255.92611,141.58903 c 0.77693,-0.93614 0.82714,-1.6235 0.14921,-2.04248 -1.28764,-0.79581 -3.51023,-5.84155 -4.86587,-11.04655 -2.20798,-8.47756 -2.3853,-12.38327 -0.80848,-17.80735 1.6778,-5.77142 4.54387,-8.79149 14.09903,-14.856572 6.30826,-4.004131 11.58933,-8.882528 10.87206,-10.043088 -0.32017,-0.518051 -1.03539,-0.512148 -1.71109,0.01412 C 271.36344,87.596559 262.95253,89 254.5258,89 c -7.30341,0 -8.67086,0.261863 -9.13854,1.75 -0.6273,1.996076 -1.77775,4.445054 -4.10608,8.740675 -0.89156,1.644875 -1.83199,5.186285 -2.08984,7.869805 -0.5127,5.33579 1.44464,18.29651 2.8989,19.19529 0.50037,0.30924 0.90976,1.25009 0.90976,2.09076 0,0.84068 1.61373,4.41412 3.58607,7.94099 2.78185,4.97441 4.09995,6.41248 5.87755,6.41248 1.26032,0 2.81844,-0.63494 3.46249,-1.41097 z"
         id="path398"
         transform="translate(-132.5,-22.5)" />
      <path
         style="fill:#ffeeaa"
         d="m 240.80718,164.85907 c 2.58105,-0.62752 5.36782,-1.71444 6.19282,-2.41539 0.825,-0.70095 3.13486,-1.57773 5.13302,-1.94841 3.10689,-0.57636 3.55124,-0.98686 3.06833,-2.83461 -0.59204,-2.26535 -4.14916,-8.80193 -5.25721,-9.66066 -1.21438,-0.94114 -5.52407,-8.49691 -7.1298,-12.5 -0.88247,-2.2 -2.86769,-6.925 -4.4116,-10.5 -3.62771,-8.40012 -4.04413,-20.94095 -0.93034,-28.017459 1.08482,-2.465398 2.24507,-4.707541 2.57833,-4.982541 2.05711,-1.69746 8.41419,-18 7.01901,-18 -0.4524,0 -2.65718,1.6875 -4.89951,3.75 -6.94485,6.387887 -11.92186,10.205072 -14.66629,11.248502 -8.88765,3.379078 -17.71151,-1.402746 -23.77605,-12.88471 -3.82993,-7.251193 -7.99226,-21.087656 -9.29271,-30.89093 -0.38434,-2.897264 -1.07629,-5.501056 -1.53767,-5.786205 -1.48399,-0.917158 -2.17848,4.557499 -1.31837,10.392779 0.4597,3.11881 0.85496,9.495564 0.87834,14.170564 l 0.0425,8.5 -3.30024,0.317105 c -3.22515,0.309891 -12.1498,-3.808806 -16.45589,-7.594343 -2.56189,-2.252187 -3.30286,-0.730431 -1.21536,2.49603 3.69093,5.704737 10.59218,13.029195 20.05157,21.281208 23.20844,20.24615 27.83868,25.40667 34.76156,38.74273 4.76413,9.17749 6.80739,18.56761 5.98799,27.51868 -0.51944,5.6744 -0.32962,7.08111 1.1807,8.75 2.12188,2.34465 1.45712,2.26743 7.29685,0.84766 z"
         id="path396"
         transform="translate(-132.5,-22.5)" />
    </g>
  </g>
</svg>
